<?xml version="1.0" encoding="UTF-8"?>
<!DOCTYPE svg PUBLIC "-//W3C//DTD SVG 1.1//EN" "http://www.w3.org/Graphics/SVG/1.1/DTD/svg11.dtd">
<!-- Creator: CorelDRAW 2020 (64-Bit) -->
<svg xmlns="http://www.w3.org/2000/svg" xml:space="preserve" width="135.467mm" height="135.467mm" version="1.1" style="shape-rendering:geometricPrecision; text-rendering:geometricPrecision; image-rendering:optimizeQuality; fill-rule:evenodd; clip-rule:evenodd"
viewBox="0 0 2208.97 2208.97"
 xmlns:xlink="http://www.w3.org/1999/xlink"
 xmlns:xodm="http://www.corel.com/coreldraw/odm/2003">
 <defs>
  <style type="text/css">
   <![CDATA[
    .fil0 {fill:white;fill-rule:nonzero}
   ]]>
  </style>
 </defs>
 <g id="Слой_x0020_1">
  <metadata id="CorelCorpID_0Corel-Layer"/>
  <path class="fil0" d="M1932.85 276.12l-92.04 0 0 -184.08c0,-50.81 -41.23,-92.04 -92.04,-92.04l-92.04 0c-50.81,0 -92.04,41.23 -92.04,92.04l0 184.08 -920.41 0 0 -184.08c0,-50.81 -41.23,-92.04 -92.04,-92.04l-92.04 0c-50.81,0 -92.04,41.23 -92.04,92.04l0 184.08 -92.04 0c-152.24,0 -276.12,123.89 -276.12,276.12l0 1380.61c0,152.24 123.89,276.12 276.12,276.12l1656.73 0c152.24,0 276.12,-123.89 276.12,-276.12l0 -1380.61c0,-152.24 -123.89,-276.12 -276.12,-276.12zm92.04 1656.73c0,50.71 -41.33,92.04 -92.04,92.04l-1656.73 0c-50.71,0 -92.04,-41.33 -92.04,-92.04l0 -1008.76 1840.81 0 0 1008.76z" data-original="#000000"/>
 </g>
</svg>
