<?xml version="1.0" encoding="UTF-8"?>
<!DOCTYPE svg PUBLIC "-//W3C//DTD SVG 1.1//EN" "http://www.w3.org/Graphics/SVG/1.1/DTD/svg11.dtd">
<!-- Creator: CorelDRAW 2020 (64-Bit) -->
<svg xmlns="http://www.w3.org/2000/svg" xml:space="preserve" width="113.02mm" height="135.467mm" version="1.1" style="shape-rendering:geometricPrecision; text-rendering:geometricPrecision; image-rendering:optimizeQuality; fill-rule:evenodd; clip-rule:evenodd"
viewBox="0 0 2509.11 3007.44"
 xmlns:xlink="http://www.w3.org/1999/xlink"
 xmlns:xodm="http://www.corel.com/coreldraw/odm/2003">
 <defs>
  <style type="text/css">
   <![CDATA[
    .fil0 {fill:white;fill-rule:nonzero}
   ]]>
  </style>
 </defs>
 <g id="Слой_x0020_1">
  <metadata id="CorelCorpID_0Corel-Layer"/>
  <path class="fil0" d="M1235.58 1448.69c199.02,0 371.36,-71.38 512.17,-212.22 140.81,-140.81 212.19,-313.11 212.19,-512.15 0,-198.98 -71.38,-371.29 -212.22,-512.15 -140.84,-140.79 -313.15,-212.17 -512.15,-212.17 -199.05,0 -371.34,71.38 -512.15,212.19 -140.81,140.81 -212.22,313.13 -212.22,512.13 0,199.05 71.4,371.36 212.24,512.17 140.84,140.79 313.15,212.19 512.13,212.19l0 0zm0 0z" data-original="#000000"/>
  <path class="fil0" d="M2503.03 2312.56c-4.06,-58.6 -12.27,-122.52 -24.37,-190.03 -12.21,-68.01 -27.92,-132.3 -46.74,-191.06 -19.43,-60.73 -45.87,-120.71 -78.54,-178.19 -33.91,-59.66 -73.74,-111.6 -118.44,-154.35 -46.74,-44.72 -103.96,-80.67 -170.14,-106.9 -65.94,-26.09 -139.02,-39.3 -217.19,-39.3 -30.7,0 -60.39,12.6 -117.73,49.93 -35.29,23.01 -76.57,49.63 -122.64,79.07 -39.4,25.1 -92.76,48.62 -158.69,69.91 -64.31,20.81 -129.62,31.36 -194.07,31.36 -64.45,0 -129.73,-10.55 -194.11,-31.36 -65.85,-21.27 -119.22,-44.79 -158.57,-69.89 -45.64,-29.16 -86.94,-55.78 -122.76,-79.11 -57.27,-37.33 -86.98,-49.93 -117.68,-49.93 -78.2,0 -151.25,13.24 -217.17,39.35 -66.13,26.18 -123.38,62.13 -170.16,106.9 -44.67,42.77 -84.53,94.69 -118.4,154.33 -32.65,57.48 -59.08,117.43 -78.54,178.21 -18.79,58.76 -34.51,123.03 -46.72,191.04 -12.09,67.41 -20.31,131.36 -24.37,190.1 -3.99,57.55 -6.01,117.27 -6.01,177.59 0,156.99 49.9,284.08 148.32,377.81 97.19,92.49 225.8,139.41 382.19,139.41l1448.1 0c156.39,0 284.95,-46.9 382.17,-139.41 98.43,-93.66 148.34,-220.78 148.34,-377.83 -0.02,-60.6 -2.06,-120.37 -6.08,-177.64l0 -0zm0 0z" data-original="#000000"/>
 </g>
</svg>
