<?xml version="1.0" encoding="UTF-8"?>
<!DOCTYPE svg PUBLIC "-//W3C//DTD SVG 1.1//EN" "http://www.w3.org/Graphics/SVG/1.1/DTD/svg11.dtd">
<!-- Creator: CorelDRAW 2020 (64-Bit) -->
<svg xmlns="http://www.w3.org/2000/svg" xml:space="preserve" width="113.02mm" height="135.467mm" version="1.1" style="shape-rendering:geometricPrecision; text-rendering:geometricPrecision; image-rendering:optimizeQuality; fill-rule:evenodd; clip-rule:evenodd"
viewBox="0 0 1508.22 1807.76"
 xmlns:xlink="http://www.w3.org/1999/xlink"
 xmlns:xodm="http://www.corel.com/coreldraw/odm/2003">
 <defs>
  <style type="text/css">
   <![CDATA[
    .fil0 {fill:#3F85CE;fill-rule:nonzero}
   ]]>
  </style>
 </defs>
 <g id="Слой_x0020_1">
  <metadata id="CorelCorpID_0Corel-Layer"/>
  <path class="fil0" d="M742.71 870.8c119.63,0 223.22,-42.91 307.86,-127.56 84.64,-84.64 127.55,-188.21 127.55,-307.85 0,-119.61 -42.91,-223.18 -127.56,-307.85 -84.66,-84.63 -188.23,-127.53 -307.85,-127.53 -119.65,0 -223.21,42.91 -307.85,127.55 -84.64,84.64 -127.56,188.22 -127.56,307.84 0,119.65 42.92,223.22 127.58,307.86 84.66,84.63 188.23,127.55 307.84,127.55l0 0 0.01 0.01zm175.16 -633.61c44.85,0 81.21,29.64 81.21,66.2 0,36.56 -36.36,66.2 -81.21,66.2 -44.85,0 -81.21,-29.64 -81.21,-66.2 0,-36.56 36.36,-66.2 81.21,-66.2zm-319.23 29.13c44.85,0 81.21,29.64 81.21,66.2 0,36.56 -36.36,66.2 -81.21,66.2 -44.85,0 -81.21,-29.64 -81.21,-66.2 0,-36.56 36.36,-66.2 81.21,-66.2z" data-original="#000000"/>
  <path class="fil0" d="M1504.56 1390.07c-2.44,-35.22 -7.38,-73.65 -14.65,-114.23 -7.34,-40.88 -16.78,-79.52 -28.09,-114.85 -11.68,-36.5 -27.57,-72.56 -47.21,-107.11 -20.38,-35.86 -44.32,-67.08 -71.19,-92.78 -28.09,-26.88 -62.49,-48.49 -102.27,-64.26 -39.64,-15.68 -83.56,-23.62 -130.55,-23.62 -18.45,0 -36.3,7.57 -70.77,30.01 -21.21,13.83 -46.03,29.83 -73.72,47.53 -23.68,15.09 -55.76,29.22 -95.39,42.02 -38.66,12.51 -77.91,18.85 -116.65,18.85 -38.74,0 -77.98,-6.34 -116.68,-18.85 -39.58,-12.79 -71.66,-26.92 -95.32,-42.01 -27.43,-17.53 -52.26,-33.53 -73.79,-47.55 -34.43,-22.44 -52.28,-30.01 -70.74,-30.01 -47.01,0 -90.92,7.96 -130.54,23.65 -39.75,15.74 -74.16,37.35 -102.28,64.26 -26.85,25.71 -50.81,56.92 -71.17,92.77 -19.63,34.55 -35.51,70.59 -47.21,107.12 -11.29,35.32 -20.74,73.95 -28.08,114.83 -7.27,40.52 -12.21,78.96 -14.65,114.27 -2.4,34.59 -3.61,70.49 -3.61,106.75 0,94.37 29.99,170.76 89.15,227.1 58.42,55.6 135.73,83.8 229.73,83.8l870.44 0c94.01,0 171.28,-28.19 229.72,-83.8 59.17,-56.3 89.17,-132.71 89.17,-227.11 -0.01,-36.43 -1.24,-72.35 -3.66,-106.78l0 0 0 -0.01zm-731.98 -176.67l41.93 0 50.53 111 -70.62 302.1 -70.62 -301.88 48.77 -111.22zm-17.1 -173.45l76.12 0c28.59,0 51.97,23.39 51.97,51.97l0 47.88c0,28.59 -23.39,51.97 -51.97,51.97l-76.12 0c-28.59,0 -51.97,-23.39 -51.97,-51.97l0 -47.88c0,-28.59 23.39,-51.97 51.97,-51.97z" data-original="#000000"/>
 </g>
</svg>
